<?xml version="1.0" encoding="UTF-8"?>
<svg xmlns="http://www.w3.org/2000/svg" xmlns:xlink="http://www.w3.org/1999/xlink" width="16pt" height="21pt" viewBox="0 0 16 21" version="1.1">
<defs>
<filter id="alpha" filterUnits="objectBoundingBox" x="0%" y="0%" width="100%" height="100%">
  <feColorMatrix type="matrix" in="SourceGraphic" values="0 0 0 0 1 0 0 0 0 1 0 0 0 0 1 0 0 0 1 0"/>
</filter>
<mask id="mask0">
  <g filter="url(#alpha)">
<rect x="0" y="0" width="16" height="21" style="fill:rgb(0%,0%,0%);fill-opacity:0.4;stroke:none;"/>
  </g>
</mask>
<clipPath id="clip1">
  <rect x="0" y="0" width="16" height="21"/>
</clipPath>
<g id="surface5" clip-path="url(#clip1)">
<path style=" stroke:none;fill-rule:nonzero;fill:rgb(0%,0%,0%);fill-opacity:1;" d="M 11.332031 5.25 C 10.964844 5.25 10.667969 4.957031 10.667969 4.59375 L 10.667969 0 L 6.667969 0 L 6.667969 1.3125 L 5.332031 1.3125 L 5.332031 0 L 1 0 C 0.449219 0 0 0.4375 0 0.980469 L 0 20.015625 C 0 20.558594 0.445312 21 0.996094 21 L 15 21 C 15.550781 21 16 20.5625 16 20.019531 L 16 5.25 Z M 3.996094 1.3125 L 5.328125 1.3125 L 5.328125 2.625 L 3.996094 2.625 Z M 7.472656 15.34375 C 7.230469 16.507812 6.078125 17.257812 4.894531 17.019531 C 3.714844 16.78125 2.953125 15.644531 3.191406 14.480469 L 4 10.5 L 4 9.1875 L 5.332031 9.1875 L 5.332031 7.875 L 4 7.875 L 4 6.5625 L 5.332031 6.5625 L 5.332031 5.25 L 4 5.25 L 4 3.9375 L 5.332031 3.9375 L 5.332031 2.625 L 6.667969 2.625 L 6.667969 3.9375 L 5.332031 3.9375 L 5.332031 5.25 L 6.667969 5.25 L 6.667969 6.5625 L 5.332031 6.5625 L 5.332031 7.875 L 6.667969 7.875 L 6.667969 9.1875 L 5.332031 9.1875 L 5.332031 10.5 L 6.265625 10.5 C 6.503906 10.5 6.707031 10.667969 6.753906 10.898438 L 7.476562 14.496094 C 7.53125 14.773438 7.53125 15.0625 7.472656 15.34375 Z M 7.472656 15.34375 "/>
</g>
</defs>
<g id="surface1">
<use xlink:href="#surface5" mask="url(#mask0)"/>
<path style=" stroke:none;fill-rule:nonzero;fill:rgb(0%,0%,0%);fill-opacity:1;" d="M 15.707031 4.304688 L 11.628906 0.289062 C 11.441406 0.101562 11.1875 0 10.921875 0 L 10.667969 0 L 10.667969 4.59375 C 10.667969 4.957031 10.964844 5.25 11.332031 5.25 L 16 5.25 L 16 5 C 16 4.738281 15.894531 4.492188 15.707031 4.304688 Z M 5.328125 1.3125 L 3.996094 1.3125 L 3.996094 2.625 L 5.328125 2.625 Z M 4 6.5625 L 4 7.875 L 5.332031 7.875 L 5.332031 6.5625 Z M 6.667969 0 L 5.332031 0 L 5.332031 1.3125 L 6.667969 1.3125 Z M 4 3.9375 L 4 5.25 L 5.332031 5.25 L 5.332031 3.9375 Z M 7.476562 14.496094 L 6.753906 10.898438 C 6.707031 10.667969 6.503906 10.5 6.265625 10.5 L 5.332031 10.5 L 5.332031 9.1875 L 4 9.1875 L 4 10.5 L 3.191406 14.484375 C 3.015625 15.335938 3.378906 16.210938 4.113281 16.695312 C 4.847656 17.183594 5.804688 17.1875 6.542969 16.703125 C 7.28125 16.222656 7.648438 15.347656 7.476562 14.496094 Z M 5.347656 15.996094 C 4.601562 15.996094 3.992188 15.503906 3.992188 14.890625 C 3.992188 14.273438 4.597656 13.78125 5.34375 13.78125 C 6.089844 13.78125 6.695312 14.277344 6.695312 14.890625 C 6.695312 15.5 6.09375 15.996094 5.347656 15.996094 Z M 6.667969 7.875 L 5.332031 7.875 L 5.332031 9.1875 L 6.667969 9.1875 Z M 6.667969 5.25 L 5.332031 5.25 L 5.332031 6.5625 L 6.667969 6.5625 Z M 6.667969 2.625 L 5.332031 2.625 L 5.332031 3.9375 L 6.667969 3.9375 Z M 6.667969 2.625 "/>
</g>
</svg>
