<?xml version="1.0" encoding="UTF-8"?>
<svg xmlns="http://www.w3.org/2000/svg" xmlns:xlink="http://www.w3.org/1999/xlink" width="20pt" height="16pt" viewBox="0 0 20 16" version="1.1">
<g id="surface1">
<path style=" stroke:none;fill-rule:nonzero;fill:rgb(0%,0%,0%);fill-opacity:1;" d="M 18.554688 1.847656 L 1.445312 1.847656 C 0.648438 1.847656 0 2.492188 0 3.289062 L 0 12.710938 C 0 13.507812 0.648438 14.152344 1.445312 14.152344 L 18.558594 14.152344 C 19.355469 14.152344 20.003906 13.507812 20 12.710938 L 20 3.289062 C 20 2.492188 19.351562 1.847656 18.554688 1.847656 Z M 10.578125 11.269531 L 8.65625 11.269531 L 8.65625 7.519531 L 6.734375 9.921875 L 4.8125 7.519531 L 4.8125 11.269531 L 2.882812 11.269531 L 2.882812 4.730469 L 4.804688 4.730469 L 6.726562 7.132812 L 8.648438 4.730469 L 10.570312 4.730469 L 10.570312 11.269531 Z M 14.804688 11.367188 L 11.921875 8 L 13.84375 8 L 13.84375 4.730469 L 15.765625 4.730469 L 15.765625 8 L 17.6875 8 Z M 14.804688 11.367188 "/>
</g>
</svg>
