<?xml version="1.0" encoding="UTF-8"?>
<svg xmlns="http://www.w3.org/2000/svg" xmlns:xlink="http://www.w3.org/1999/xlink" width="16pt" height="18pt" viewBox="0 0 16 18" version="1.1">
<defs>
<filter id="alpha" filterUnits="objectBoundingBox" x="0%" y="0%" width="100%" height="100%">
  <feColorMatrix type="matrix" in="SourceGraphic" values="0 0 0 0 1 0 0 0 0 1 0 0 0 0 1 0 0 0 1 0"/>
</filter>
<mask id="mask0">
  <g filter="url(#alpha)">
<rect x="0" y="0" width="16" height="18" style="fill:rgb(0%,0%,0%);fill-opacity:0.4;stroke:none;"/>
  </g>
</mask>
<clipPath id="clip1">
  <rect x="0" y="0" width="16" height="18"/>
</clipPath>
<g id="surface5" clip-path="url(#clip1)">
<path style=" stroke:none;fill-rule:nonzero;fill:rgb(0%,0%,0%);fill-opacity:1;" d="M 15.964844 2.570312 L 15.964844 4.179688 C 15.964844 5.59375 12.382812 6.75 7.964844 6.75 C 3.546875 6.75 -0.0351562 5.59375 -0.0351562 4.179688 L -0.0351562 2.570312 C -0.0351562 1.15625 3.546875 0 7.964844 0 C 12.382812 0 15.964844 1.15625 15.964844 2.570312 Z M 15.964844 2.570312 "/>
</g>
</defs>
<g id="surface1">
<use xlink:href="#surface5" mask="url(#mask0)"/>
<path style=" stroke:none;fill-rule:nonzero;fill:rgb(0%,0%,0%);fill-opacity:1;" d="M -0.0351562 11.8125 L -0.0351562 15.429688 C -0.0351562 16.84375 3.546875 18 7.964844 18 C 12.382812 18 15.964844 16.84375 15.964844 15.429688 L 15.964844 11.8125 C 14.246094 12.976562 11.101562 13.519531 7.964844 13.519531 C 4.828125 13.519531 1.683594 12.976562 -0.0351562 11.8125 Z M 7.964844 7.894531 C 4.828125 7.894531 1.683594 7.351562 -0.0351562 6.1875 L -0.0351562 9.804688 C -0.0351562 11.21875 3.546875 12.375 7.964844 12.375 C 12.382812 12.375 15.964844 11.21875 15.964844 9.804688 L 15.964844 6.1875 C 14.246094 7.351562 11.101562 7.894531 7.964844 7.894531 Z M 7.964844 7.894531 "/>
</g>
</svg>
