<?xml version="1.0" encoding="UTF-8"?>
<svg xmlns="http://www.w3.org/2000/svg" xmlns:xlink="http://www.w3.org/1999/xlink" width="16pt" height="21pt" viewBox="0 0 16 21" version="1.1">
<defs>
<filter id="alpha" filterUnits="objectBoundingBox" x="0%" y="0%" width="100%" height="100%">
  <feColorMatrix type="matrix" in="SourceGraphic" values="0 0 0 0 1 0 0 0 0 1 0 0 0 0 1 0 0 0 1 0"/>
</filter>
<mask id="mask0">
  <g filter="url(#alpha)">
<rect x="0" y="0" width="16" height="21" style="fill:rgb(0%,0%,0%);fill-opacity:0.4;stroke:none;"/>
  </g>
</mask>
<clipPath id="clip1">
  <rect x="0" y="0" width="16" height="21"/>
</clipPath>
<g id="surface5" clip-path="url(#clip1)">
<path style=" stroke:none;fill-rule:nonzero;fill:rgb(0%,0%,0%);fill-opacity:1;" d="M 3.585938 17.558594 C 3.585938 17.589844 4.136719 17.335938 5.042969 15.910156 C 4.761719 16.167969 3.828125 16.914062 3.585938 17.558594 Z M 7.496094 8.582031 C 7.375 8.582031 7.371094 9.847656 7.578125 10.503906 C 7.8125 10.09375 7.847656 8.582031 7.496094 8.582031 Z M 10.835938 14.410156 C 12.382812 15.058594 12.621094 14.777344 12.621094 14.777344 C 12.792969 14.667969 12.515625 14.289062 10.835938 14.410156 Z M 7.507812 12.441406 C 7.1875 13.269531 6.789062 14.214844 6.324219 15.011719 C 7.085938 14.726562 7.949219 14.304688 8.945312 14.113281 C 8.417969 13.71875 7.910156 13.152344 7.507812 12.441406 Z M 11.332031 5.25 C 10.964844 5.25 10.667969 4.957031 10.667969 4.59375 L 10.667969 0 L 1 0 C 0.449219 0 0 0.4375 0 0.980469 L 0 20.015625 C 0 20.558594 0.445312 21 0.996094 21 L 15 21 C 15.550781 21 16 20.5625 16 20.019531 L 16 5.25 Z M 12.246094 15.683594 C 11.542969 15.683594 10.484375 15.367188 9.578125 14.882812 C 8.542969 15.054688 7.363281 15.488281 6.289062 15.835938 C 5.230469 17.632812 4.488281 18.371094 3.742188 18.371094 C 3.511719 18.371094 3.078125 18.242188 2.847656 17.960938 C 2.050781 16.996094 3.988281 15.742188 5.117188 15.171875 C 5.121094 15.171875 5.121094 15.167969 5.125 15.167969 C 5.628906 14.296875 6.339844 12.78125 6.824219 11.648438 C 6.472656 10.300781 6.277344 9.242188 6.488281 8.488281 C 6.710938 7.683594 8.285156 7.5625 8.480469 8.769531 C 8.703125 9.492188 8.410156 10.644531 8.222656 11.402344 C 8.613281 12.417969 9.167969 13.109375 10 13.609375 C 10.804688 13.507812 12.488281 13.347656 13.066406 13.902344 C 13.546875 14.371094 13.460938 15.683594 12.246094 15.683594 Z M 12.246094 15.683594 "/>
</g>
</defs>
<g id="surface1">
<use xlink:href="#surface5" mask="url(#mask0)"/>
<path style=" stroke:none;fill-rule:nonzero;fill:rgb(0%,0%,0%);fill-opacity:1;" d="M 15.707031 4.304688 L 11.628906 0.289062 C 11.441406 0.101562 11.1875 0 10.921875 0 L 10.667969 0 L 10.667969 4.59375 C 10.667969 4.957031 10.964844 5.25 11.332031 5.25 L 16 5.25 L 16 5 C 16 4.738281 15.894531 4.492188 15.707031 4.304688 Z M 10 13.609375 C 9.167969 13.109375 8.613281 12.417969 8.222656 11.402344 C 8.410156 10.644531 8.703125 9.492188 8.480469 8.769531 C 8.285156 7.5625 6.710938 7.683594 6.488281 8.492188 C 6.277344 9.242188 6.472656 10.300781 6.824219 11.648438 C 6.339844 12.78125 5.628906 14.296875 5.125 15.167969 C 5.121094 15.167969 5.121094 15.171875 5.117188 15.171875 C 3.988281 15.742188 2.050781 16.996094 2.847656 17.960938 C 3.078125 18.242188 3.511719 18.371094 3.742188 18.371094 C 4.488281 18.371094 5.230469 17.632812 6.289062 15.835938 C 7.363281 15.488281 8.542969 15.054688 9.578125 14.882812 C 10.484375 15.367188 11.542969 15.683594 12.246094 15.683594 C 13.460938 15.683594 13.546875 14.371094 13.066406 13.90625 C 12.488281 13.347656 10.804688 13.507812 10 13.609375 Z M 3.585938 17.558594 C 3.828125 16.914062 4.761719 16.167969 5.042969 15.910156 C 4.136719 17.335938 3.585938 17.589844 3.585938 17.558594 Z M 7.496094 8.582031 C 7.847656 8.582031 7.8125 10.09375 7.578125 10.503906 C 7.371094 9.847656 7.375 8.582031 7.496094 8.582031 Z M 6.324219 15.011719 C 6.789062 14.214844 7.1875 13.269531 7.507812 12.441406 C 7.910156 13.152344 8.417969 13.71875 8.945312 14.113281 C 7.949219 14.304688 7.085938 14.726562 6.324219 15.011719 Z M 12.621094 14.777344 C 12.621094 14.777344 12.382812 15.058594 10.835938 14.410156 C 12.515625 14.289062 12.792969 14.667969 12.621094 14.777344 Z M 12.621094 14.777344 "/>
</g>
</svg>
