<?xml version="1.0" encoding="UTF-8"?>
<svg xmlns="http://www.w3.org/2000/svg" xmlns:xlink="http://www.w3.org/1999/xlink" width="20pt" height="16pt" viewBox="0 0 20 16" version="1.1">
<g id="surface1">
<path style=" stroke:none;fill-rule:nonzero;fill:rgb(0%,0%,0%);fill-opacity:1;" d="M 10 3.265625 C 15.355469 3.265625 19.476562 5.523438 19.476562 8 C 19.476562 10.476562 15.351562 12.734375 10 12.734375 C 4.644531 12.734375 0.523438 10.476562 0.523438 8 C 0.523438 5.523438 4.648438 3.265625 10 3.265625 M 10 2.742188 C 4.476562 2.742188 0 5.09375 0 8 C 0 10.90625 4.476562 13.257812 10 13.257812 C 15.523438 13.257812 20 10.90625 20 8 C 20 5.09375 15.523438 2.742188 10 2.742188 Z M 6.820312 7.578125 C 6.570312 8.84375 5.699219 8.710938 4.628906 8.710938 L 5.054688 6.507812 C 6.242188 6.507812 7.050781 6.378906 6.820312 7.578125 Z M 3.042969 10.945312 L 4.191406 10.945312 L 4.460938 9.546875 C 5.746094 9.546875 6.542969 9.640625 7.28125 8.949219 C 8.097656 8.199219 8.308594 6.867188 7.726562 6.195312 C 7.425781 5.847656 6.9375 5.675781 6.273438 5.675781 L 4.066406 5.675781 Z M 8.847656 4.273438 L 9.988281 4.273438 L 9.714844 5.671875 C 10.699219 5.671875 11.613281 5.601562 12.054688 6.007812 C 12.515625 6.429688 12.292969 6.976562 11.792969 9.539062 L 10.636719 9.539062 C 11.117188 7.058594 11.210938 6.851562 11.035156 6.664062 C 10.867188 6.484375 10.480469 6.523438 9.554688 6.523438 L 8.964844 9.539062 L 7.824219 9.539062 Z M 15.78125 7.578125 C 15.53125 8.863281 14.632812 8.710938 13.589844 8.710938 L 14.019531 6.507812 C 15.210938 6.507812 16.011719 6.378906 15.78125 7.578125 Z M 12.007812 10.945312 L 13.15625 10.945312 L 13.429688 9.546875 C 14.777344 9.546875 15.523438 9.625 16.246094 8.949219 C 17.0625 8.199219 17.273438 6.867188 16.695312 6.195312 C 16.390625 5.847656 15.902344 5.675781 15.242188 5.675781 L 13.03125 5.675781 Z M 12.007812 10.945312 "/>
</g>
</svg>
